<svg width="40" height="36" viewBox="0 0 40 36" fill="none" xmlns="http://www.w3.org/2000/svg">
<g filter="url(#filter0_d_757_805)">
<path d="M20 10.8749C23.003 10.8749 25.4374 8.44047 25.4374 5.43745C25.4374 2.43443 23.003 0 20 0C16.9969 0 14.5625 2.43443 14.5625 5.43745C14.5625 8.44047 16.9969 10.8749 20 10.8749Z" fill="#2405F2"/>
<path d="M31 10.8749C32.8984 10.8749 34.4374 9.33593 34.4374 7.43747C34.4374 5.53901 32.8984 4 31 4C29.1015 4 27.5625 5.53901 27.5625 7.43747C27.5625 9.33593 29.1015 10.8749 31 10.8749Z" fill="#2405F2"/>
<path d="M8.99997 10.8749C10.8984 10.8749 12.4374 9.33593 12.4374 7.43747C12.4374 5.53901 10.8984 4 8.99997 4C7.10151 4 5.5625 5.53901 5.5625 7.43747C5.5625 9.33593 7.10151 10.8749 8.99997 10.8749Z" fill="#2405F2"/>
<path d="M12.3868 13.9615C11.0337 12.8528 9.80826 12.9996 8.24371 12.9996C5.90373 12.9996 4 14.8921 4 17.2177V24.0432C4 25.0532 4.82437 25.8745 5.83811 25.8745C10.2147 25.8745 9.68745 25.9537 9.68745 25.6857C9.68745 20.8491 9.11458 17.3022 12.3868 13.9615Z" fill="#2405F2"/>
<path d="M21.4882 13.0249C18.7555 12.797 16.3802 13.0275 14.3314 14.7187C10.9029 17.4649 11.5627 21.1625 11.5627 25.6861C11.5627 26.8829 12.5364 27.8748 13.7514 27.8748C26.9439 27.8748 27.469 28.3003 28.2513 26.5679C28.5078 25.9821 28.4375 26.1682 28.4375 20.5636C28.4375 16.112 24.583 13.0249 21.4882 13.0249Z" fill="#2405F2"/>
<path d="M31.7564 13.0004C30.1833 13.0004 28.9646 12.8552 27.6133 13.9623C30.8611 17.2783 30.3126 20.5832 30.3126 25.6865C30.3126 25.9562 29.8749 25.8753 34.0963 25.8753C35.1463 25.8753 36.0001 25.0247 36.0001 23.9791V17.2185C36.0001 14.8929 34.0963 13.0004 31.7564 13.0004Z" fill="#2405F2"/>
</g>
<defs>
<filter id="filter0_d_757_805" x="0" y="0" width="40" height="35.9209" filterUnits="userSpaceOnUse" color-interpolation-filters="sRGB">
<feFlood flood-opacity="0" result="BackgroundImageFix"/>
<feColorMatrix in="SourceAlpha" type="matrix" values="0 0 0 0 0 0 0 0 0 0 0 0 0 0 0 0 0 0 127 0" result="hardAlpha"/>
<feOffset dy="4"/>
<feGaussianBlur stdDeviation="2"/>
<feComposite in2="hardAlpha" operator="out"/>
<feColorMatrix type="matrix" values="0 0 0 0 0 0 0 0 0 0 0 0 0 0 0 0 0 0 0.25 0"/>
<feBlend mode="normal" in2="BackgroundImageFix" result="effect1_dropShadow_757_805"/>
<feBlend mode="normal" in="SourceGraphic" in2="effect1_dropShadow_757_805" result="shape"/>
</filter>
</defs>
</svg>
